<svg width="101" height="100" viewBox="0 0 101 100" fill="none" xmlns="http://www.w3.org/2000/svg">
<g clip-path="url(#clip0_190_552)">
<path fill-rule="evenodd" clip-rule="evenodd" d="M88.2824 0C95.0256 0 100.5 5.47461 100.5 12.2176V87.7824C100.5 94.5254 95.0254 100 88.2824 100H67.4879V62.3213H80.4957L82.9707 46.1844H67.4879V35.7123C67.4879 31.2977 69.6506 26.9943 76.5855 26.9943H83.625V13.2561C83.625 13.2561 77.2363 12.1658 71.1285 12.1658C58.377 12.1658 50.0426 19.8941 50.0426 33.8853V46.1844H35.8682V62.3213H50.0426V100H12.7176C5.97461 100 0.5 94.5254 0.5 87.7824V12.2176C0.5 5.47461 5.97441 0 12.7176 0L88.2824 0Z" fill="#113DAE"/>
</g>
<defs>
<clipPath id="clip0_190_552">
<rect width="100" height="100" fill="white" transform="translate(0.5)"/>
</clipPath>
</defs>
</svg>
