<svg width="100" height="101" viewBox="0 0 100 101" fill="none" xmlns="http://www.w3.org/2000/svg">
<g clip-path="url(#clip0_190_567)">
<path fill-rule="evenodd" clip-rule="evenodd" d="M87.7824 0.5C94.5256 0.5 100 5.97461 100 12.7176V88.2824C100 95.0254 94.5254 100.5 87.7824 100.5H12.2176C5.47461 100.5 0 95.0254 0 88.2824V12.7176C0 5.97461 5.47441 0.5 12.2176 0.5L87.7824 0.5ZM50 16.3203C40.7174 16.3203 39.5533 16.3596 35.9078 16.526C32.2697 16.692 29.7852 17.2697 27.6109 18.1148C25.3633 18.9883 23.4572 20.157 21.557 22.057C19.6568 23.9572 18.4881 25.8635 17.6146 28.1109C16.7697 30.2852 16.192 32.7697 16.0258 36.4078C15.8596 40.0533 15.8203 41.2174 15.8203 50.5C15.8203 59.7826 15.8596 60.9467 16.0258 64.5922C16.192 68.2303 16.7697 70.7148 17.6146 72.8891C18.4881 75.1365 19.6568 77.0428 21.557 78.943C23.4572 80.8432 25.3633 82.0119 27.6109 82.8853C29.7852 83.7303 32.2697 84.308 35.9078 84.474C39.5533 84.6404 40.7174 84.6797 50 84.6797C59.2826 84.6797 60.4467 84.6404 64.0922 84.474C67.7303 84.308 70.2148 83.7303 72.3891 82.8853C74.6365 82.0119 76.5428 80.8432 78.443 78.943C80.3432 77.0428 81.5119 75.1365 82.3853 72.8891C83.2303 70.7148 83.808 68.2303 83.974 64.5922C84.1404 60.9467 84.1797 59.7826 84.1797 50.5C84.1797 41.2174 84.1404 40.0533 83.974 36.4078C83.808 32.7697 83.2303 30.2852 82.3853 28.1109C81.5119 25.8635 80.3432 23.9572 78.443 22.057C76.5428 20.157 74.6365 18.9883 72.3891 18.1148C70.2148 17.2697 67.7303 16.692 64.0922 16.526C60.4467 16.3596 59.2826 16.3203 50 16.3203ZM50 22.4789C59.1264 22.4789 60.2074 22.5137 63.8115 22.6781C67.1439 22.8303 68.9537 23.3871 70.1582 23.8549C71.7537 24.475 72.8922 25.2158 74.0883 26.4117C75.2844 27.6078 76.025 28.7465 76.6451 30.3418C77.1131 31.5463 77.6699 33.3561 77.8219 36.6885C77.9863 40.2926 78.0213 41.3736 78.0213 50.5C78.0213 59.6264 77.9863 60.7074 77.8219 64.3115C77.6699 67.6439 77.1131 69.4537 76.6451 70.6582C76.025 72.2537 75.2844 73.3922 74.0883 74.5883C72.8922 75.7844 71.7537 76.525 70.1582 77.1451C68.9537 77.6131 67.1439 78.1699 63.8115 78.3219C60.208 78.4863 59.127 78.5213 50 78.5213C40.873 78.5213 39.7922 78.4863 36.1885 78.3219C32.8561 78.1699 31.0463 77.6131 29.8418 77.1451C28.2463 76.525 27.1078 75.7844 25.9117 74.5883C24.7156 73.3922 23.9748 72.2537 23.3549 70.6582C22.8869 69.4537 22.3301 67.6439 22.1779 64.3115C22.0135 60.7074 21.9787 59.6264 21.9787 50.5C21.9787 41.3736 22.0135 40.2926 22.1779 36.6885C22.3301 33.3561 22.8869 31.5463 23.3549 30.3418C23.9748 28.7465 24.7156 27.6078 25.9117 26.4117C27.1078 25.2158 28.2463 24.475 29.8418 23.8549C31.0463 23.3871 32.8561 22.8303 36.1885 22.6781C39.7926 22.5137 40.8736 22.4789 50 22.4789ZM50 32.9482C40.3064 32.9482 32.4482 40.8064 32.4482 50.5C32.4482 60.1936 40.3064 68.0518 50 68.0518C59.6936 68.0518 67.5518 60.1936 67.5518 50.5C67.5518 40.8064 59.6936 32.9482 50 32.9482ZM50 61.8932C43.7076 61.8932 38.6068 56.7924 38.6068 50.5C38.6068 44.2076 43.7076 39.1068 50 39.1068C56.2924 39.1068 61.3932 44.2076 61.3932 50.5C61.3932 56.7924 56.2924 61.8932 50 61.8932ZM72.3469 32.2549C72.3469 34.5201 70.5104 36.3563 68.2451 36.3563C65.9801 36.3563 64.1437 34.5201 64.1437 32.2549C64.1437 29.9897 65.9801 28.1533 68.2451 28.1533C70.5104 28.1533 72.3469 29.9897 72.3469 32.2549Z" fill="#1C0D79"/>
</g>
<defs>
<clipPath id="clip0_190_567">
<rect width="100" height="100" fill="white" transform="translate(0 0.5)"/>
</clipPath>
</defs>
</svg>
