<svg width="101" height="101" viewBox="0 0 101 101" fill="none" xmlns="http://www.w3.org/2000/svg">
<g clip-path="url(#clip0_190_572)">
<path fill-rule="evenodd" clip-rule="evenodd" d="M88.2824 0.5C95.0256 0.5 100.5 5.97461 100.5 12.7176V88.2824C100.5 95.0254 95.0254 100.5 88.2824 100.5H37.4594C39.576 96.9305 42.2645 91.8781 43.3371 87.7531C43.9877 85.2488 46.6717 75.0299 46.6717 75.0299C48.4166 78.358 53.5154 81.1754 58.9387 81.1754C75.0816 81.1754 86.7119 66.3307 86.7119 47.8848C86.7119 30.2035 72.283 16.9736 53.7164 16.9736C30.6189 16.9736 18.3525 32.4783 18.3525 49.3617C18.3525 57.2117 22.5316 66.9844 29.2164 70.0963C30.2305 70.568 30.7729 70.3602 31.0063 69.3803C31.1838 68.6363 32.0863 65.0012 32.493 63.3105C32.6229 62.7701 32.5586 62.3053 32.1217 61.7754C29.9102 59.0939 28.1385 54.1615 28.1385 49.5613C28.1385 37.757 37.0773 26.3346 52.3062 26.3346C65.4541 26.3346 74.6627 35.2945 74.6627 48.109C74.6627 62.5877 67.3506 72.6182 57.8373 72.6182C52.5834 72.6182 48.651 68.2738 49.9117 62.9463C51.4209 56.584 54.3445 49.7186 54.3445 45.1262C54.3445 41.0154 52.1385 37.5869 47.5725 37.5869C42.2014 37.5869 37.8879 43.1432 37.8879 50.5852C37.8879 55.3254 39.4891 58.5314 39.4891 58.5314C39.4891 58.5314 34.1854 80.9584 33.2133 85.1352C32.1371 89.7561 32.5586 96.2645 33.0266 100.499L33.0287 100.5H12.7176C5.97461 100.5 0.5 95.0254 0.5 88.2824V12.7176C0.5 5.97461 5.97441 0.5 12.7176 0.5L88.2824 0.5Z" fill="#A84530"/>
</g>
<defs>
<clipPath id="clip0_190_572">
<rect width="100" height="100" fill="white" transform="translate(0.5 0.5)"/>
</clipPath>
</defs>
</svg>
