<svg width="101" height="100" viewBox="0 0 101 100" fill="none" xmlns="http://www.w3.org/2000/svg">
<g clip-path="url(#clip0_190_577)">
<path fill-rule="evenodd" clip-rule="evenodd" d="M88.2824 0C95.0256 0 100.5 5.47461 100.5 12.2176V87.7824C100.5 94.5254 95.0254 100 88.2824 100H12.7176C5.97461 100 0.5 94.5254 0.5 87.7824V12.2176C0.5 5.47461 5.97441 0 12.7176 0L88.2824 0ZM70.9662 46.9455H70.9646C69.649 46.8953 69.0666 46.3342 68.9939 46.2603C69.0277 45.6385 69.0684 44.9891 69.1104 44.3209L69.123 44.1123C69.426 39.3145 69.8016 33.3434 68.2822 29.9359C63.7268 19.7223 54.0512 18.9275 51.1939 18.9275L51.0252 18.9283C51.0252 18.9283 49.8486 18.9408 49.7756 18.9408C46.925 18.9408 37.2701 19.734 32.7172 29.9422C31.198 33.3477 31.5729 39.3139 31.8754 44.1154C31.9223 44.8563 31.9682 45.5738 32.0049 46.2611C31.9275 46.3412 31.2941 46.951 29.8428 46.951C28.7924 46.951 27.5752 46.6307 26.2246 45.9979C25.9924 45.8893 25.7162 45.8338 25.4029 45.8338C24.2592 45.8338 22.8451 46.5711 22.6437 47.6293C22.526 48.2504 22.776 49.4686 25.7783 50.6557C26.0535 50.7643 26.4025 50.8744 26.7705 50.9908C28.2754 51.4682 30.5486 52.1902 31.2453 53.8326C31.6258 54.7289 31.5041 55.8225 30.8826 57.082C30.8768 57.0941 30.8713 57.1059 30.8662 57.118C30.677 57.5588 26.1229 67.9389 15.967 69.6113C15.5922 69.6725 15.3234 70.0076 15.3449 70.3867C15.3529 70.527 15.3867 70.6682 15.4467 70.8094C15.8682 71.7967 17.759 73.1883 24.3656 74.2084C24.9326 74.2957 25.142 75.1273 25.4373 76.4797C25.552 77.0055 25.6711 77.5488 25.8355 78.1096C26.025 78.757 26.4611 78.8439 26.8637 78.8439C27.2486 78.8439 27.7555 78.7451 28.343 78.6303C29.3094 78.4412 30.6334 78.1822 32.3117 78.1822C33.2436 78.1822 34.2076 78.2637 35.1762 78.4238C37.1609 78.7543 38.8455 79.9453 40.6309 81.2064C43.216 83.0346 45.8896 84.9246 50.0551 84.9246C50.1738 84.9246 50.2924 84.9193 50.4061 84.9107H50.4064C50.5846 84.9191 50.7625 84.9246 50.9438 84.9246C55.1104 84.9246 57.7834 83.0346 60.374 81.2027C62.1559 79.943 63.8393 78.7543 65.8221 78.4238C66.791 78.2637 67.7557 78.1822 68.6877 78.1822C70.2838 78.1822 71.5383 78.3838 72.6572 78.6025C73.2881 78.7264 73.7857 78.7891 74.1361 78.7891H74.2184C74.7228 78.7891 75.0229 78.5639 75.1635 78.0826C75.3268 77.5281 75.4453 77.0008 75.5625 76.4639C75.8848 74.9885 76.0939 74.285 76.6338 74.2021C83.2428 73.1809 85.132 71.791 85.5512 70.8109C85.6121 70.6715 85.6467 70.5281 85.6551 70.3859C85.6756 70.0061 85.4078 69.6719 85.0326 69.6098C74.8725 67.9355 70.3219 57.5584 70.1332 57.118C70.1283 57.1051 70.1221 57.0934 70.1162 57.0813C69.4949 55.8209 69.373 54.7281 69.7539 53.8322C70.4502 52.1902 72.7229 51.4689 74.2289 50.9908C74.5986 50.8738 74.9477 50.7629 75.2205 50.6557C77.8551 49.6148 78.392 48.5572 78.3789 47.8539C78.3646 47.1066 77.6965 46.3916 76.6762 46.0303L76.6545 46.0213C76.2953 45.8715 75.8625 45.7891 75.4357 45.7891C75.1564 45.7891 74.7459 45.8252 74.3764 45.9979C73.1152 46.5885 71.966 46.9072 70.9662 46.9455Z" fill="#E7A806"/>
</g>
<defs>
<clipPath id="clip0_190_577">
<rect width="100" height="100" fill="white" transform="translate(0.5)"/>
</clipPath>
</defs>
</svg>
