<svg width="101" height="101" viewBox="0 0 101 101" fill="none" xmlns="http://www.w3.org/2000/svg">
<g clip-path="url(#clip0_190_562)">
<path fill-rule="evenodd" clip-rule="evenodd" d="M88.2824 0.5C95.0256 0.5 100.5 5.97461 100.5 12.7176V88.2824C100.5 95.0254 95.0254 100.5 88.2824 100.5H12.7176C5.97461 100.5 0.5 95.0254 0.5 88.2824V12.7176C0.5 5.97461 5.97441 0.5 12.7176 0.5L88.2824 0.5ZM55.6406 17.2969H45.2779C44.7984 24.7396 40.623 33.334 30.6449 35.9277V46.5865H39.715V66.2719C39.715 78.5643 47.1514 83.7031 57.1291 83.7031H68.2109V70.6418H62.3578C58.2256 70.6367 55.6406 68.8584 55.6406 63.7275V46.5865H67.7316V34.199H55.6406V17.2969Z" fill="#1E1919"/>
</g>
<defs>
<clipPath id="clip0_190_562">
<rect width="100" height="100" fill="white" transform="translate(0.5 0.5)"/>
</clipPath>
</defs>
</svg>
